PathFileType	4	(X/Y/Z)	intermediate\S1_nor_med_left\tmpk2z6hi7d.trc
DataRate	CameraRate	NumFrames	NumMarkers	Units	OrigDataRate	OrigDataStartFrame	OrigNumFrames
250.0	250.0	7	18	mm	250.0	4799	7677
Frame#	Time	c7			r_should			l_should			clavicle			r_upa			r_elb_l			r_elb_m			r_low			r_wri_l			r_wri_m			r_met			l_upa			l_elb_l			l_elb_m			l_low			l_wri_l			l_wri_m			l_met			
		X	Y	Z	X	Y	Z	X	Y	Z	X	Y	Z	X	Y	Z	X	Y	Z	X	Y	Z	X	Y	Z	X	Y	Z	X	Y	Z	X	Y	Z	X	Y	Z	X	Y	Z	X	Y	Z	X	Y	Z	X	Y	Z	X	Y	Z	X	Y	Z	
4799	19.192000	905.087463	1419.425903	75.811096	984.417725	1353.947266	257.516144	952.846802	1344.479614	-113.657883	1039.045166	1297.619873	64.261032	988.114502	1140.971436	304.486053	1011.695374	1039.435303	310.216614	934.337158	1022.840027	241.280151	964.840393	910.549255	325.727966	1042.192017	819.333679	295.082458	975.006653	804.393982	315.715332	1078.505005	745.117432	310.697144	1018.664734	1138.932251	-129.524521	1037.688232	1096.162109	-134.196915	1031.998047	1048.266968	-32.477825	1123.537964	1149.091919	-67.592651	1112.177734	1251.739624	-86.836777	1143.638672	1237.622559	-22.610277	1157.786133	1311.134766	-97.489326	
4800	19.196000	905.099976	1419.407471	75.802544	984.372925	1353.935059	257.522247	952.970154	1344.437622	-113.675468	1039.093750	1297.642212	64.303261	988.110474	1140.951660	304.471924	1011.715515	1039.430786	310.212067	934.372742	1022.836914	241.256454	964.875000	910.543884	325.719849	1042.232300	819.323975	295.082916	975.049011	804.388733	315.727448	1078.551636	745.112610	310.700775	1019.016235	1138.987305	-129.405548	1038.121826	1096.213501	-134.154633	1032.275513	1048.384277	-32.224831	1123.346191	1149.679565	-67.251572	1111.312500	1252.247681	-86.592407	1142.846313	1238.393311	-22.347889	1156.471313	1311.959961	-97.257309	
4801	19.200000	905.113464	1419.390625	75.795944	984.331482	1353.924194	257.518341	953.093506	1344.399048	-113.696175	1039.136475	1297.659668	64.344795	988.114258	1140.947388	304.459290	1011.728516	1039.425903	310.210846	934.399353	1022.835022	241.233124	964.898438	910.532227	325.709045	1042.266235	819.317017	295.092285	975.091003	804.383606	315.737305	1078.589600	745.107422	310.712189	1019.354675	1139.037109	-129.302887	1038.702515	1096.274414	-134.269363	1032.524170	1048.450684	-31.989477	1123.139282	1150.253296	-66.917229	1110.464722	1252.741211	-86.363655	1142.059082	1239.165283	-22.085983	1155.147095	1312.755127	-97.045052	
4802	19.204000	905.121582	1419.370117	75.778412	984.286072	1353.913818	257.521515	953.212402	1344.368164	-113.713287	1039.176758	1297.675537	64.381500	988.128235	1140.938354	304.449188	1011.741028	1039.421509	310.201813	934.431824	1022.823669	241.201736	964.922791	910.523926	325.702209	1042.299927	819.311829	295.102997	975.128662	804.377625	315.748047	1078.634277	745.101562	310.714905	1019.684692	1139.081421	-129.214584	1039.070679	1096.334106	-134.181320	1033.138672	1048.570679	-31.367029	1122.915771	1150.828857	-66.588333	1109.612183	1253.230957	-86.136299	1141.260620	1239.876709	-21.818558	1153.810669	1313.529297	-96.836586	
4803	19.208000	905.123718	1419.355103	75.757286	984.236755	1353.909546	257.528839	953.319031	1344.330078	-113.731018	1039.213135	1297.694214	64.409706	988.129395	1140.933716	304.439117	1011.757629	1039.424561	310.197601	934.472473	1022.803528	241.161819	964.947815	910.516907	325.694641	1042.333862	819.307007	295.116791	975.163025	804.377625	315.758484	1078.678467	745.092163	310.722137	1020.005005	1139.119751	-129.130157	1039.349487	1096.409546	-134.052200	1034.220703	1048.765625	-30.268259	1122.692871	1151.383911	-66.276230	1108.765381	1253.696167	-85.916916	1140.470947	1240.578735	-21.574532	1152.499634	1314.285645	-96.658264	
4804	19.212000	905.126099	1419.345093	75.731354	984.187012	1353.905151	257.534485	953.418213	1344.290527	-113.744942	1039.248169	1297.707642	64.442924	988.127563	1140.927124	304.429504	1011.776001	1039.420166	310.194977	934.514954	1022.785645	241.130707	964.972229	910.511414	325.685516	1042.363892	819.299133	295.135712	975.199890	804.373108	315.771088	1078.711182	745.092773	310.737427	1020.316345	1139.150269	-129.039078	1039.591431	1096.469849	-133.911942	1034.666992	1048.858398	-29.822969	1122.471924	1151.911987	-65.978600	1107.926392	1254.141602	-85.703453	1139.678467	1241.287964	-21.352985	1151.208374	1315.000732	-96.482887	
4805	19.216000	905.128357	1419.334106	75.718178	984.145203	1353.897217	257.529572	953.513794	1344.254272	-113.766594	1039.281860	1297.718750	64.478233	988.134216	1140.931519	304.431000	1011.793030	1039.418335	310.193726	934.553528	1022.776489	241.101990	964.994202	910.507568	325.683319	1042.394653	819.289978	295.150085	975.235718	804.367920	315.784027	1078.744385	745.089233	310.752350	1020.613220	1139.169312	-128.943832	1039.818237	1096.514160	-133.774200	1034.938354	1048.927856	-29.516235	1122.236572	1152.419800	-65.668442	1107.079834	1254.578125	-85.494072	1138.883911	1241.933960	-21.136820	1149.921997	1315.710938	-96.332512	
